<?xml version="1.0" encoding="utf-8"?>
<!-- Generator: Adobe Illustrator 24.2.3, SVG Export Plug-In . SVG Version: 6.00 Build 0)  -->
<svg version="1.1" xmlns="http://www.w3.org/2000/svg" xmlns:xlink="http://www.w3.org/1999/xlink" x="0px" y="0px"
	 viewBox="0 0 1000 1000" style="enable-background:new 0 0 1000 1000;" xml:space="preserve">
<style type="text/css">
	.st0{fill:#F2C61A;}
	.st1{fill:#2A2F4A;}
</style>
<g id="Layer_1">
	<circle class="st0" cx="500" cy="500" r="406"/>
</g>
<g id="Logo">
	<g>
		<g>
			<path class="st1" d="M775.72,396.59v-8.33C749.54,376,721.7,369.7,691.88,369.7c-60.98,0-99.75,24.52-99.75,71.91
				c0,2.71,0.14,5.32,0.4,7.85L775.72,396.59z"/>
			<path class="st1" d="M719.05,462.49c-22.2-6.63-36.79-11.27-43.41-13.92c-6.3-2.98-9.61-5.97-9.61-8.95
				c0-5.63,6.96-8.62,20.55-8.62s29.16,2.32,46.4,6.96c17.23,4.31,31.48,9.94,42.75,16.57v-56.8l-182.29,57.84
				c6.06,30.52,32.88,47.8,74.91,60.27c18.89,5.63,31.81,9.94,38.44,12.92s9.94,5.97,9.94,9.28c0,7.29-8.95,10.94-26.84,10.94
				c-15.58,0-33.14-3.31-52.69-9.61c-19.55-6.3-34.47-13.92-45.07-22.87v69.59c26.18,16.57,58.33,24.86,96.44,24.86
				c30.82,0,55.34-6.96,73.9-20.55c18.89-13.92,28.17-32.48,28.17-55.68C790.63,499.28,767.1,477.08,719.05,462.49z"/>
		</g>
		<g>
			<path class="st1" d="M473.54,483.81c1.22-13.6,6.8-24.94,16.97-34.24c11.6-10.94,26.18-16.24,43.75-16.24
				c18.89,0,37.78,4.97,56.67,15.24V381.3c-16.24-8.29-35.79-12.26-58.66-12.26c-38.11,0-69.93,11.27-94.78,33.8
				c-24.86,22.2-37.45,51.37-37.45,86.83c0,5.18,0.28,10.21,0.81,15.12L473.54,483.81z"/>
			<path class="st1" d="M491.17,530.43c-10.95-9.74-16.86-22-17.76-36.76l-70.79,22.46c4.86,23.76,16.58,44.04,35.2,60.69
				c25.19,22.2,57,33.47,95.11,33.47c24.86,0,45.4-4.31,61.31-12.59v-68.27c-15.58,10.94-34.47,16.57-57.33,16.57
				C518.35,546.01,503.11,540.7,491.17,530.43z"/>
		</g>
		<g>
			<polygon class="st1" points="188.46,584.09 179.37,606.32 252.94,606.32 269.84,562.91 345.4,562.91 361.97,606.32 
				438.52,606.32 401.63,516.45 			"/>
			<path class="st1" d="M397.27,505.83l-54.52-132.81h-67.94l-78,190.67L397.27,505.83z M307.62,454.54l16.9,55.01h-34.13
				L307.62,454.54z"/>
		</g>
	</g>
</g>
</svg>
